<svg xmlns="http://www.w3.org/2000/svg" xml:space="preserve" style="enable-background:new 0 0 485.213 485.212"
     viewBox="0 0 485.2 485.2">
  <path d="M424.6 394.2c0 62.6-94.4 91-182 91s-182-28.4-182-91c0-51.7 64.6-80 136.5-88.3v30.8C135.7 344.4 91 367 91 394.2c0 33.5 67.8 60.7 151.6 60.7s151.6-27.2 151.6-60.7c0-27-44.7-49.8-106.1-57.5v-30.8c71.9 8.3 136.5 36.6 136.5 88.3zM242.6 0a105.8 105.8 0 0 0-15.2 210.7v183.5h30.4V210.7A105.8 105.8 0 0 0 242.6 0zm-30.3 91a30.3 30.3 0 1 1 0-60.6 30.3 30.3 0 0 1 0 60.6z"/>
</svg>
